<svg viewBox="0 0 40 40" version="1.1" xmlns="http://www.w3.org/2000/svg" xmlns:xlink="http://www.w3.org/1999/xlink">
    <defs>
        <polyline id="path-1" points="13 12 25 12 31 12 31 18 31 29 7 29 7 17.5"></polyline>
        <mask id="mask-2" maskContentUnits="userSpaceOnUse" maskUnits="objectBoundingBox" x="0" y="0" width="24" height="17" fill="white">
            <use xlink:href="#path-1"></use>
        </mask>
    </defs>
    <g id="Symbols" stroke="none" stroke-width="1" fill="none" fill-rule="evenodd">
        <g id="Video-Controls---CC-Off-Btn">
            <path d="M18.2417998,22.492517 C17.9523118,22.6075983 17.4457079,22.6912938 17.0011371,22.6912938 C15.719119,22.6912938 14.9643826,21.8961866 14.9643826,20.6198303 C14.9643826,19.1865449 15.8948796,18.5483667 16.9597817,18.5483667 C17.5180799,18.5483667 17.9523118,18.6739099 18.2521386,18.7994532 L18.6139986,17.3033962 C18.3245106,17.1569291 17.6731627,17 16.8770708,17 C14.7989609,17 13,18.2658944 13,20.7453735 C13,22.6180603 14.147613,24.2605844 16.7530046,24.2605844 C17.580113,24.2605844 18.2417998,24.1036553 18.5002712,23.9676502 L18.2417998,22.492517 Z M24.4657908,22.492517 C24.1763029,22.6075983 23.6696989,22.6912938 23.2251282,22.6912938 C21.9431101,22.6912938 21.1883736,21.8961866 21.1883736,20.6198303 C21.1883736,19.1865449 22.1188706,18.5483667 23.1837727,18.5483667 C23.7420709,18.5483667 24.1763029,18.6739099 24.4761297,18.7994532 L24.8379896,17.3033962 C24.5485017,17.1569291 23.8971538,17 23.1010619,17 C21.0229519,17 19.2239911,18.2658944 19.2239911,20.7453735 C19.2239911,22.6180603 20.371604,24.2605844 22.9769956,24.2605844 C23.8041041,24.2605844 24.4657908,24.1036553 24.7242622,23.9676502 L24.4657908,22.492517 Z" id="CC" fill="#FFFFFF"></path>
            <use id="Rectangle-38-Copy" stroke="#FFFFFF" mask="url(#mask-2)" stroke-width="2" transform="translate(19.000000, 20.500000) scale(-1, 1) translate(-19.000000, -20.500000) " xlink:href="#path-1"></use>
            <path d="M28.4285714,9.42857143 L33.5714286,14.5714286" id="Line" stroke="#FFFFFF" stroke-width="2" stroke-linecap="square"></path>
            <path d="M28.4285714,9.42857143 L33.5714286,14.5714286" id="Line" stroke="#FFFFFF" stroke-width="2" stroke-linecap="square" transform="translate(31.000000, 12.000000) scale(1, -1) translate(-31.000000, -12.000000) "></path>
        </g>
    </g>
</svg>
