<?xml version="1.0" encoding="utf-8"?>
<!-- Generator: Adobe Illustrator 16.0.0, SVG Export Plug-In . SVG Version: 6.00 Build 0)  -->
<!DOCTYPE svg PUBLIC "-//W3C//DTD SVG 1.1//EN" "http://www.w3.org/Graphics/SVG/1.1/DTD/svg11.dtd">
<svg version="1.1" id="Layer_1" xmlns="http://www.w3.org/2000/svg" xmlns:xlink="http://www.w3.org/1999/xlink" x="0px" y="0px"
	 width="58px" height="58px" viewBox="0 0 58 58" enable-background="new 0 0 58 58" xml:space="preserve">
<title>38D4915D-C904-4D61-AB07-AB8EEC5C10DB</title>
<desc>Created with sketchtool.</desc>
<g id="Symbols">
	<g id="Benefits-Module" transform="translate(-1089.000000, -262.000000)">
		<g id="Benefits---Check-Mark" transform="translate(1090.000000, 263.000000)">
			<g id="Group-16">
				<g id="Oval-2">
					<path fill="#007DC6" d="M28,57C12.009,57-1,43.99-1,28C-1,12.009,12.009-1,28-1c15.99,0,29,13.009,29,29
						C57,43.99,43.99,57,28,57z M28,1C13.112,1,1,13.112,1,28s12.112,27,27,27s27-12.112,27-27S42.888,1,28,1z"/>
				</g>
				<g id="Path-6">
					<polygon fill="#007DC6" points="27.431,38.619 18.432,30.165 19.801,28.708 26.981,35.451 38.216,16.454 39.937,17.472
						"/>
				</g>
			</g>
		</g>
	</g>
</g>
</svg>
