<svg viewBox="0 0 23 23" version="1.1" xmlns="http://www.w3.org/2000/svg" xmlns:xlink="http://www.w3.org/1999/xlink">
    <g stroke="none" stroke-width="1" fill="none" fill-rule="evenodd">
        <g transform="translate(0.000000, -47.000000)" fill="currentColor">
            <g>
                <path d="M21.1130626,47 L1.23330615,47 C0.55201544,47 0,47.5520154 0,48.2333061 L0,68.1130626 C0,68.7941858 0.55201544,69.3463687 1.23330615,69.3463687 L11.9358582,69.3463687 L11.9358582,60.6927124 L9.02373185,60.6927124 L9.02373185,57.3201685 L11.9358582,57.3201685 L11.9358582,54.833043 C11.9358582,51.9467047 13.6987408,50.3750557 16.2735291,50.3750557 C17.5068352,50.3750557 18.5669091,50.4669048 18.8757799,50.5079313 L18.8757799,53.5242984 L17.0900397,53.5251356 C15.6896972,53.5251356 15.4185875,54.1905181 15.4185875,55.1669483 L15.4185875,57.3201685 L18.7582265,57.3201685 L18.3233458,60.6927124 L15.4185875,60.6927124 L15.4185875,69.3463687 L21.1130626,69.3463687 C21.7941858,69.3463687 22.3463687,68.7941858 22.3463687,68.1130626 L22.3463687,48.2333061 C22.3463687,47.5520154 21.7941858,47 21.1130626,47"></path>
            </g>
        </g>
    </g>
</svg>
