<svg viewBox="0 0 40 40" version="1.1" xmlns="http://www.w3.org/2000/svg" xmlns:xlink="http://www.w3.org/1999/xlink">
    <defs>
        <rect id="path-1" x="12" y="14" width="20" height="14"></rect>
        <mask id="mask-2" maskContentUnits="userSpaceOnUse" maskUnits="objectBoundingBox" x="0" y="0" width="20" height="14" fill="white">
            <use xlink:href="#path-1"></use>
        </mask>
        <polyline id="path-3" points="5 1 5 6 0 6"></polyline>
        <mask id="mask-4" maskContentUnits="userSpaceOnUse" maskUnits="objectBoundingBox" x="0" y="0" width="5" height="5" fill="white">
            <use xlink:href="#path-3"></use>
        </mask>
        <polyline id="path-5" points="5 1 5 6 0 6"></polyline>
        <mask id="mask-6" maskContentUnits="userSpaceOnUse" maskUnits="objectBoundingBox" x="0" y="0" width="5" height="5" fill="white">
            <use xlink:href="#path-5"></use>
        </mask>
    </defs>
    <g id="Symbols" stroke="none" stroke-width="1" fill="none" fill-rule="evenodd">
        <g id="Video-Controls---Full-Screen-On-Btn-Copy">
            <use id="Rectangle-38-Copy" stroke="#FFFFFF" mask="url(#mask-2)" stroke-width="2" xlink:href="#path-1"></use>
            <rect id="Rectangle-38" fill="#FFFFFF" x="9" y="11" width="20" height="14"></rect>
            <g id="Group" transform="translate(21.000000, 13.000000)" stroke="#FFFFFF">
                <path d="M1.5,0.5 L5.57142857,4.57142857" id="Line" stroke-linecap="square" transform="translate(3.500000, 2.500000) scale(1, -1) translate(-3.500000, -2.500000) "></path>
                <use id="Rectangle-44" mask="url(#mask-4)" stroke-width="2" transform="translate(2.500000, 3.500000) rotate(90.000000) translate(-2.500000, -3.500000) " xlink:href="#path-3"></use>
            </g>
            <g id="Group-Copy" transform="translate(14.000000, 20.000000) rotate(180.000000) translate(-14.000000, -20.000000) translate(11.000000, 17.000000)" stroke="#FFFFFF">
                <path d="M1.5,0.5 L5.57142857,4.57142857" id="Line" stroke-linecap="square" transform="translate(3.500000, 2.500000) scale(1, -1) translate(-3.500000, -2.500000) "></path>
                <use id="Rectangle-44" mask="url(#mask-6)" stroke-width="2" transform="translate(2.500000, 3.500000) rotate(90.000000) translate(-2.500000, -3.500000) " xlink:href="#path-5"></use>
            </g>
        </g>
    </g>
</svg>
