<?xml version="1.0" encoding="UTF-8" standalone="no"?>
<svg viewBox="0 0 23 23" version="1.1" xmlns="http://www.w3.org/2000/svg" xmlns:xlink="http://www.w3.org/1999/xlink">
    <g id="Symbols">
        <g id="Global-Footer---375px" transform="translate(-245.000000, -382.000000)">
            <g id="Group-2" transform="translate(245.000000, 382.000000)">
                <path d="M1.23330615,0 C0.55201544,0 0,0.55201544 0,1.23330615 L0,21.1130626 C0,21.7941858 0.55201544,22.3463687 1.23330615,22.3463687 L21.1130626,22.3463687 C21.7941858,22.3463687 22.3463687,21.7941858 22.3463687,21.1130626 L22.3463687,1.23330615 C22.3463687,0.55201544 21.7941858,0 21.1130626,0 L1.23330615,0 Z" id="Facebook-Copy" fill="currentColor"></path>
                <path d="M15.8888587,5.52576957 L15.8888587,4.49066485 L7.92690787,3.02600723 C6.98269148,2.85245275 6.1111413,3.56955943 6.1111413,4.52022023 L6.1111413,17.7183609 C6.1111413,18.6321331 7.05046884,19.251907 7.90201913,18.8999092 L14.8948648,16.0125937 C15.4966389,15.7645952 15.8888587,15.1817099 15.8888587,14.5361584 L15.8888587,6.12576587 L14.2728687,6.02243317 L14.2728687,13.6554971 C14.2728687,14.1741606 13.9464262,14.63838 13.4553182,14.8186011 L9.02023445,16.4457021 L9.02023445,5.88398958 C9.02023445,5.28754882 9.54423121,4.82355169 10.1422275,4.88999572 L15.8888587,5.52576957 Z" id="Fill-4" fill="#FFFFFF"></path>
            </g>
        </g>
    </g>
</svg>