<svg viewBox="0 0 22 22" version="1.1" xmlns="http://www.w3.org/2000/svg" xmlns:xlink="http://www.w3.org/1999/xlink">
    <g transform="translate(-508.000000, -258.000000)">
        <g transform="translate(508.000000, 258.000000)" fill="currentColor">
            <g>
                <path d="M19.5555556,6.11111111 C19.5555556,6.44859722 19.2819306,6.72222222 18.9444444,6.72222222 L15.8888889,6.72222222 C15.5514028,6.72222222 15.2777778,6.44859722 15.2777778,6.11111111 L15.2777778,3.05555556 C15.2777778,2.71806944 15.5514028,2.44444444 15.8888889,2.44444444 L18.9444444,2.44444444 C19.2819306,2.44444444 19.5555556,2.71806944 19.5555556,3.05555556 L19.5555556,6.11111111 Z M19.5555556,18.9444444 C19.5555556,19.2819306 19.2819306,19.5555556 18.9444444,19.5555556 L3.05555556,19.5555556 C2.71806944,19.5555556 2.44444444,19.2819306 2.44444444,18.9444444 L2.44444444,9.16666667 L4.53093056,9.16666667 C4.36608333,9.7494375 4.27777778,10.3644444 4.27777778,11 C4.27777778,14.7125764 7.28742361,17.7222222 11,17.7222222 C14.7125764,17.7222222 17.7222222,14.7125764 17.7222222,11 C17.7222222,10.3644444 17.6339167,9.7494375 17.4690694,9.16666667 L19.5555556,9.16666667 L19.5555556,18.9444444 Z M11,6.72222222 C13.3625556,6.72222222 15.2777778,8.63744444 15.2777778,11 C15.2777778,13.3625556 13.3625556,15.2777778 11,15.2777778 C8.63744444,15.2777778 6.72222222,13.3625556 6.72222222,11 C6.72222222,8.63744444 8.63744444,6.72222222 11,6.72222222 Z M18.9444444,0 L3.05555556,0 C1.36804861,0 0,1.36804861 0,3.05555556 L0,18.9444444 C0,20.6319514 1.36804861,22 3.05555556,22 L18.9444444,22 C20.6319514,22 22,20.6319514 22,18.9444444 L22,3.05555556 C22,1.36804861 20.6319514,0 18.9444444,0 L18.9444444,0 Z"></path>
            </g>
        </g>
    </g>
</svg>