<svg viewBox="0 0 23 23" version="1.1" xmlns="http://www.w3.org/2000/svg" xmlns:xlink="http://www.w3.org/1999/xlink">
    <g stroke="none" stroke-width="1" fill="none" fill-rule="evenodd">
        <g transform="translate(-90.000000, -47.000000)" fill="currentColor">
            <g>
                <path d="M109.451784,66.0415891 L106.137694,66.0415891 L106.137694,60.8553693 C106.137694,59.6188703 106.116589,58.027933 104.415782,58.027933 C102.690766,58.027933 102.427576,59.3755431 102.427576,60.7672253 L102.427576,66.0415891 L99.1172097,66.0415891 L99.1172097,55.3774053 L102.294118,55.3774053 L102.294118,56.8355059 L102.340053,56.8355059 C102.782014,55.9968963 103.86333,55.1129733 105.475372,55.1129733 C108.831673,55.1129733 109.451784,57.3209187 109.451784,60.1930478 L109.451784,66.0415891 L109.451784,66.0415891 Z M95.3804003,53.9205462 C94.3158441,53.9205462 93.4573711,53.0595903 93.4573711,51.9981378 C93.4573711,50.937306 94.3158441,50.0763501 95.3804003,50.0763501 C96.4406113,50.0763501 97.3009465,50.937306 97.3009465,51.9981378 C97.3009465,53.0595903 96.4406113,53.9205462 95.3804003,53.9205462 L95.3804003,53.9205462 Z M93.7205616,66.0415891 L97.0383767,66.0415891 L97.0383767,55.3774053 L93.7205616,55.3774053 L93.7205616,66.0415891 Z M111.102312,47 L92.0576194,47 C91.1482463,47 90.4095747,47.7212911 90.4095747,48.6114215 L90.4095747,67.7337058 C90.4095747,68.6238361 91.1482463,69.3463687 92.0576194,69.3463687 L111.102312,69.3463687 C112.013547,69.3463687 112.755323,68.6238361 112.755323,67.7337058 L112.755323,48.6114215 C112.755323,47.7212911 112.013547,47 111.102312,47 L111.102312,47 Z"></path>
            </g>
        </g>
    </g>
</svg>
