<svg version="1.1" id="Layer_1" xmlns="http://www.w3.org/2000/svg" xmlns:xlink="http://www.w3.org/1999/xlink" viewBox="0 0 56 56" style="enable-background:new 0 0 56 56;" xml:space="preserve">
<g id="Search-Icon" transform="translate(1149.000000, 18.000000)">
	<g id="Group-6">
		<g id="Group-4" transform="translate(15.000000, 14.000000)">
			<path id="Shape" class="st0" d="M-1138.9,2.4c-5.6,0-10.1-4.6-10.1-10.2s4.5-10.2,10.1-10.2s10.1,4.6,10.1,10.2
				C-1128.8-2.2-1133.3,2.4-1138.9,2.4z M-1138.9-16.4c-4.7,0-8.5,3.8-8.5,8.6s3.8,8.6,8.5,8.6s8.5-3.8,8.5-8.6
				C-1130.4-12.5-1134.2-16.4-1138.9-16.4L-1138.9-16.4z"/>
			<path id="Shape_1_" class="st0" d="M-1122.9,8.9c-0.2,0-0.4-0.1-0.6-0.2l-6.6-6.7c-0.3-0.3-0.3-0.8,0-1.2c0.3-0.3,0.8-0.3,1.1,0
				l6.6,6.7c0.2,0.2,0.3,0.6,0.2,0.9C-1122.3,8.7-1122.6,8.9-1122.9,8.9z"/>
		</g>
	</g>
</g>
</svg>
