<svg viewBox="0 0 27 23" version="1.1" xmlns="http://www.w3.org/2000/svg" xmlns:xlink="http://www.w3.org/1999/xlink">
    <g stroke="none" stroke-width="1" fill="none" fill-rule="evenodd">
        <g transform="translate(-43.000000, -47.000000)" fill="currentColor">
            <g>
                <path d="M69.7559434,49.6355688 C68.7714961,50.0825964 67.7135505,50.3847233 66.6031481,50.5206053 C67.7365494,49.8249618 68.6068833,48.7234762 69.0167516,47.4110529 C67.9561636,48.0550893 66.7813644,48.5228599 65.5310117,48.7749831 C64.5296334,47.6826164 63.1030217,47 61.5242262,47 C58.4925906,47 56.0347511,49.5165218 56.0347511,52.6204625 C56.0347511,53.0609765 56.0833911,53.4899667 56.1769522,53.9013202 C51.6147698,53.6669339 47.5700118,51.4292908 44.8626106,48.0288348 C44.3901072,48.8589573 44.1194063,49.8244608 44.1194063,50.8544981 C44.1194063,52.8044442 45.0885862,54.524814 46.5614892,55.5327054 C45.6615993,55.5035449 44.8152428,55.2507202 44.0750724,54.8297467 C44.0746809,54.8531954 44.0746809,54.8767442 44.0746809,54.9003933 C44.0746809,57.6236441 45.9668474,59.8953579 48.4780247,60.4116291 C48.0173633,60.5400957 47.5324308,60.6087381 47.0317416,60.6087381 C46.6780492,60.6087381 46.3341435,60.5735651 45.9990458,60.507929 C46.6975248,62.7409625 48.7247482,64.3659343 51.1268034,64.4113285 C49.2481426,65.9187564 46.8812217,66.8173209 44.3094646,66.8173209 C43.8664193,66.8173209 43.4294417,66.7907658 43,66.7388581 C45.4292623,68.3335672 48.3146842,69.2639978 51.4146312,69.2639978 C61.5114056,69.2639978 67.0326877,60.6995265 67.0326877,53.2722148 C67.0326877,53.0285092 67.0274028,52.7861062 67.0168332,52.5451061 C68.0892631,51.7526618 69.0199812,50.7627076 69.7559434,49.6355688"></path>
            </g>
        </g>
    </g>
</svg>
