<svg xmlns="http://www.w3.org/2000/svg" viewBox="0 0 22.35 22.35">
    <title>YouTube</title>
    <g id="a8d60716-9574-4fc3-ab9e-467ab1eb8f56" data-name="Layer 2">
        <g id="3d522dfa-6dc8-4411-a9af-bc3144e6d0ee" data-name="Layer 1">
            <g id="292bb0ef-5560-41f0-bf02-f8fedc15d5e5" data-name="Symbols">
                <g id="cd275d26-6716-4611-b39c-ea0c0ef970bd" data-name="Global-Footer---1400px">
                    <g id="8244350e-37f7-4c08-ae57-9de5789e3f6d" data-name="Group-4">
                        <path id="2416c400-54e1-4f3f-8956-734cc8414c96" data-name="YouTube" d="M1.23,0A1.23,1.23,0,0,0,0,1.23V21.11a1.23,1.23,0,0,0,1.23,1.23H21.11a1.23,1.23,0,0,0,1.23-1.23V1.23A1.23,1.23,0,0,0,21.11,0Z" fill="currentColor" />
                        <path id="d11d06d0-e128-469c-8af8-542d85775b03" data-name="Fill-1" d="M9.52,13.16V8.52L14,10.85Zm9.94-5.43a3.53,3.53,0,0,0-.67-1.64,2.42,2.42,0,0,0-1.68-.7c-2.34-.17-5.86-.17-5.86-.17h0s-3.52,0-5.86.17a2.42,2.42,0,0,0-1.68.7A3.53,3.53,0,0,0,3,7.72a24.54,24.54,0,0,0-.17,2.67v1.25A24.54,24.54,0,0,0,3,14.31a3.53,3.53,0,0,0,.67,1.64,2.87,2.87,0,0,0,1.85.7c1.34.13,5.69.17,5.69.17s3.52,0,5.86-.17a2.42,2.42,0,0,0,1.68-.7,3.53,3.53,0,0,0,.67-1.64,24.57,24.57,0,0,0,.17-2.67V10.39a24.57,24.57,0,0,0-.17-2.67Z" fill="#fff" />
                    </g>
                </g>
            </g>
        </g>
    </g>
</svg>
